<svg xmlns="http://www.w3.org/2000/svg" width="64.068" height="61.816" viewBox="0 0 64.068 61.816">
  <g id="add_money__select" transform="translate(-1024.498 -2116.234)">
    <g id="Group_5070" data-name="Group 5070" transform="translate(1024.605 2116.362)">
      <path id="Path_7214" data-name="Path 7214" d="M217.5,322.583a4.049,4.049,0,0,0-1.288-.1,19.733,19.733,0,0,0-5.921-8.94,5.941,5.941,0,0,1,1.016-4.114,2.334,2.334,0,0,0-2.279-3.56,10.646,10.646,0,0,0-6.853,3.446,19.717,19.717,0,0,0-2.4-.437.976.976,0,0,0-1.085.85s2.427,11.557-5.841,18.134c-6.827,5.95-19.937,1.481-19.937,1.481-.533.055-.753.531-.7,1.064a19.768,19.768,0,0,0,6.545,12.963,5.073,5.073,0,0,1,1.7,3.747v2.221c0,.008,0,.016,0,.023a2.2,2.2,0,0,0,2.221,2.183h7.549a2.2,2.2,0,0,0,2.2-2.209v-.94h4.031v.934a2.2,2.2,0,0,0,2.2,2.2h7.566a2.2,2.2,0,0,0,2.164-2.24v-1.795a5.194,5.194,0,0,1,1.848-3.927,19.752,19.752,0,0,0,5.994-9.01q.194.015.388.011a4.082,4.082,0,0,0,4-4.161v-3.772A4.133,4.133,0,0,0,217.5,322.583Z" transform="translate(-161.933 -291.277)" fill="#ffe094" stroke="rgba(0,0,0,0)" stroke-width="1"/>
      <path id="Path_7215" data-name="Path 7215" d="M155.235,298.888a7.54,7.54,0,1,1,.013,0Zm3.247-6.743C158.046,292.137,161.971,296.051,158.482,292.146Z" transform="translate(-141.468 -269.058)" fill="#ffe094" stroke="rgba(0,0,0,0)" stroke-width="1"/>
      <path id="Path_7209" data-name="Path 7209" d="M59.253,12.556a2.878,2.878,0,0,1,2.8,4.372A7.29,7.29,0,0,0,60.8,21.981a24.25,24.25,0,0,1,7.274,10.983,4.974,4.974,0,0,1,1.581.126,5.076,5.076,0,0,1,3.827,4.973V42.7A5.013,5.013,0,0,1,68.093,47.8a24.266,24.266,0,0,1-7.361,11.07A6.381,6.381,0,0,0,58.462,63.7V65.9a2.7,2.7,0,0,1-2.68,2.752H46.507a2.7,2.7,0,0,1-2.7-2.7V64.8H38.845v1.154a2.7,2.7,0,0,1-2.7,2.7H26.882a2.7,2.7,0,0,1-2.728-2.712V63.223a6.231,6.231,0,0,0-2.1-4.6A24.282,24.282,0,0,1,14.018,42.7a1.191,1.191,0,1,1,2.372-.221,21.91,21.91,0,0,0,7.259,14.367,8.6,8.6,0,0,1,2.878,6.381v2.728a.332.332,0,0,0,.332.332h9.251a.332.332,0,0,0,.332-.332V63.579a1.186,1.186,0,0,1,.364-.83,1.233,1.233,0,0,1,.862-.332h7.3A1.186,1.186,0,0,1,46.151,63.6v2.372a.332.332,0,0,0,.332.332h9.3a.332.332,0,0,0,.332-.332v-2.23a8.753,8.753,0,0,1,3.1-6.626A21.894,21.894,0,0,0,66.14,46.144a1.186,1.186,0,0,1,1.518-.791,2.609,2.609,0,0,0,1.479.055,2.736,2.736,0,0,0,2-2.673V38.063a2.744,2.744,0,0,0-2.016-2.688,2.593,2.593,0,0,0-1.479.079,1.186,1.186,0,0,1-1.526-.791A21.91,21.91,0,0,0,59,23.538a1.178,1.178,0,0,1-.4-.648,9.528,9.528,0,0,1,1.486-7.2.474.474,0,0,0,0-.522.49.49,0,0,0-.482-.237A10.47,10.47,0,0,0,52.2,18.881a1.194,1.194,0,0,1-1.265.419,21.721,21.721,0,0,0-3.337-.664,1.195,1.195,0,0,1,.285-2.372,24.243,24.243,0,0,1,2.949.538A13.078,13.078,0,0,1,59.253,12.556ZM57.94,35.8a3.475,3.475,0,1,1,0,.008Zm0-2.372a1.108,1.108,0,1,0,0,.008ZM14.666,36.4a17.174,17.174,0,1,1,12.1,5.021h0A17.047,17.047,0,0,1,14.666,36.4Zm1.676-1.676a6.145,6.145,0,1,0-.032,0Zm3.6-9.267h5.638v5.669a1.186,1.186,0,1,0,2.372,0V25.46h5.693a1.186,1.186,0,1,0,0-2.372H27.949V17.41a1.186,1.186,0,0,0-2.372,0V23.08H19.908a1.186,1.186,0,1,0,0,2.372Z" transform="translate(-9.626 -7.074)" fill="#ffab31" stroke="#ffab31" stroke-width="0.2"/>
    </g>
  </g>
</svg>
