<svg xmlns="http://www.w3.org/2000/svg" xmlns:xlink="http://www.w3.org/1999/xlink" width="194.581" height="152.289" viewBox="0 0 194.581 152.289">
 
  <g id="Group_5513" data-name="Group 5513" transform="translate(-746.88 -313.04)">
    <g id="Group_5512" data-name="Group 5512" transform="translate(661 53)">
      <g id="Group_4554" data-name="Group 4554" transform="translate(85.88 260.04)">
        <g id="Group_4438" data-name="Group 4438" transform="translate(0)">
          <g id="Group_2537" data-name="Group 2537">
            <path id="Path_3460" data-name="Path 3460" d="M412.1,213.137h-1.847a6.416,6.416,0,0,1-6.415-6.415v0a6.415,6.415,0,0,1-6.414,6.415h0a6.414,6.414,0,0,1,6.414,6.414v0a6.415,6.415,0,0,1,6.415-6.414Z" transform="translate(-240.715 -153.19)" fill="#ea80b2"/>
            <path id="Path_3461" data-name="Path 3461" d="M278.107,188.015h-1.848a6.415,6.415,0,0,1-6.414-6.414v0a6.415,6.415,0,0,1-6.415,6.414h0a6.415,6.415,0,0,1,6.415,6.415v0a6.415,6.415,0,0,1,6.414-6.415Z" transform="translate(-261.582 -157.102)" fill="#ea80b2"/>
            <path id="Path_3462" data-name="Path 3462" d="M305.151,224.577H303.3a6.415,6.415,0,0,1-6.415-6.415v0a6.415,6.415,0,0,1-6.414,6.415h0a6.415,6.415,0,0,1,6.414,6.414v0a6.415,6.415,0,0,1,6.415-6.414Z" transform="translate(-257.37 -151.408)" fill="#ffa340"/>
            <path id="Path_3463" data-name="Path 3463" d="M395.806,241.021h-1.452a5.043,5.043,0,0,1-5.044-5.044v0a5.043,5.043,0,0,1-5.044,5.044h0a5.044,5.044,0,0,1,5.044,5.044v0a5.044,5.044,0,0,1,5.044-5.044Z" transform="translate(-242.703 -148.572)" fill="url(#linear-gradient)"/>
            <path id="Path_3464" data-name="Path 3464" d="M431.694,190.683h-1.453a5.044,5.044,0,0,1-5.044-5.044v0a5.044,5.044,0,0,1-5.044,5.044h0a5.044,5.044,0,0,1,5.044,5.044v0a5.044,5.044,0,0,1,5.044-5.044Z" transform="translate(-237.114 -156.411)" fill="#ffa340"/>
            <path id="Path_3465" data-name="Path 3465" d="M299.688,200.449h-1.333a4.626,4.626,0,0,1-4.625-4.625v0a4.626,4.626,0,0,1-4.626,4.625h0a4.627,4.627,0,0,1,4.626,4.626v0a4.626,4.626,0,0,1,4.625-4.626Z" transform="translate(-257.504 -154.807)" fill="#ea80b2"/>
            <path id="Path_3466" data-name="Path 3466" d="M327.768,172.456h-2.751a9.551,9.551,0,0,1-9.551-9.552v0a9.551,9.551,0,0,1-9.551,9.552h0a9.551,9.551,0,0,1,9.551,9.551v0a9.551,9.551,0,0,1,9.551-9.551Z" transform="translate(-255.106 -160.154)" fill="#ffa340"/>
            <path id="Path_6899" data-name="Path 6899" d="M327.768,172.456h-2.751a9.551,9.551,0,0,1-9.551-9.552v0a9.551,9.551,0,0,1-9.551,9.552h0a9.551,9.551,0,0,1,9.551,9.551v0a9.551,9.551,0,0,1,9.551-9.551Z" transform="translate(-198.618 -154.36)" fill="#fff" opacity="0.65"/>
            <path id="Path_6900" data-name="Path 6900" d="M317.13,167.136h-1.561a5.421,5.421,0,0,1-5.421-5.422v0a5.421,5.421,0,0,1-5.421,5.422h0a5.421,5.421,0,0,1,5.421,5.421v0a5.421,5.421,0,0,1,5.421-5.421Z" transform="translate(-246.89 -78.069)" fill="#fff" opacity="0.65"/>
            <path id="Path_6901" data-name="Path 6901" d="M305.151,224.577H303.3a6.415,6.415,0,0,1-6.415-6.415v0a6.415,6.415,0,0,1-6.414,6.415h0a6.415,6.415,0,0,1,6.414,6.414v0a6.415,6.415,0,0,1,6.415-6.414Z" transform="translate(-141.498 -196.309)" fill="#ffa340"/>
          </g>
        </g>
      </g>
      <path id="Path_6999" data-name="Path 6999" d="M337.882,280.941A56.941,56.941,0,1,1,280.941,224,56.942,56.942,0,0,1,337.882,280.941Zm0,0" transform="translate(-92.495 73.947)" fill="#fff" stroke="#e5e5e5" stroke-width="1"/>
      <g id="Group_4820" data-name="Group 4820" transform="translate(-19.307 1.878)">
        <path id="Path_7054" data-name="Path 7054" d="M231.185,43.781,209.25,58.305a7.47,7.47,0,0,1-5.306,1.15,7.5,7.5,0,0,0-5.319,1.147l-2.936,1.946L179.25,38.316l4.033-17.424A18.187,18.187,0,0,0,180.729,6.75a4.348,4.348,0,0,1,6.652-5.523l2.613,2.531a27.926,27.926,0,0,1,6.74,10.333l1.417,3.815,14.591-9.64a4.975,4.975,0,0,1,6.971,1.519,5.041,5.041,0,0,1-1.563,6.834.055.055,0,0,0,.051.1,4.951,4.951,0,0,1,1.778-.33,5,5,0,0,1,2.711.8,4.976,4.976,0,0,1,2.173,5.142,5.082,5.082,0,0,1-2.086,3.15.107.107,0,0,0-.027.148,0,0,0,0,0,0,0,.106.106,0,0,0,.14.028,5.105,5.105,0,0,1,1.207-.143,5.241,5.241,0,0,1,2.806.814,4.892,4.892,0,0,1,1.451,1.424,4.973,4.973,0,0,1-1.4,6.894c-.056.038-.113.077-.169.113a.077.077,0,0,0-.025.1.041.041,0,0,0,.018.018.08.08,0,0,0,.1,0,4.87,4.87,0,0,1,4.221.543,5.07,5.07,0,0,1,1.486,1.473,4.977,4.977,0,0,1-1.4,6.9Zm0,0" transform="translate(8.208 320)" fill="#fdd7bd"/>
        <path id="Path_7055" data-name="Path 7055" d="M48.65,242.838,39.4,248.966l-13.324,8.95C13.7,252.792,5.544,242.8.522,230.584l17.657-13.261,9.438-6.251a2.361,2.361,0,0,1,3.273.668l18.427,27.823a2.364,2.364,0,0,1-.668,3.275Zm0,0" transform="translate(155.457 144.31)" fill="#87dbff"/>
        <path id="Path_7056" data-name="Path 7056" d="M126.5,242.838l-9.254,6.128L96.027,217.324l9.438-6.251a2.361,2.361,0,0,1,3.273.668l18.427,27.822a2.364,2.364,0,0,1-.668,3.276Zm0,0" transform="translate(77.609 144.309)" fill="#6fc7ff"/>
      </g>
    </g>
  </g>
</svg>
